<?xml version="1.0" encoding="utf-8"?><svg version="1.1" id="Layer_1" xmlns="http://www.w3.org/2000/svg" xmlns:xlink="http://www.w3.org/1999/xlink" x="0px" y="0px" viewBox="0 0 128 128" style="enable-background:new 0 0 128 128;" xml:space="preserve"><style type="text/css">.st0{fill:#00A3BF;}.st1{fill:none;stroke:#FFFFFF;stroke-width:3;stroke-linecap:round;stroke-linejoin:round;}.st2{fill:none;stroke:#FFFFFF;stroke-width:3;stroke-linecap:round;stroke-linejoin:round;stroke-miterlimit:4.0001;}</style><circle class="st0" cx="64" cy="64" r="64"/><g id="Group_116" transform="translate(-226 -272)"><g id="Group_109" transform="translate(-935.252 -1578.252)"><rect id="Rectangle_40" x="1208.01" y="1887.09" class="st1" width="11.36" height="58.11"/><rect id="Rectangle_41" x="1219.35" y="1883.3" class="st1" width="11.36" height="61.9"/><g id="Group_107" transform="translate(1171.252 1860.252)"><rect id="Rectangle_42" x="21.01" y="23.05" class="st1" width="15.75" height="61.9"/><ellipse id="Ellipse_33" class="st1" cx="28.88" cy="37.65" rx="1.81" ry="3.96"/><line id="Line_31" class="st1" x1="21.01" y1="64.41" x2="36.76" y2="64.41"/><line id="Line_32" class="st1" x1="21.01" y1="71.66" x2="36.76" y2="71.66"/></g><g id="Group_108" transform="translate(1183.568 1860.935)"><rect id="Rectangle_43" x="53.03" y="25.51" transform="matrix(0.9777 -0.2101 0.2101 0.9777 -10.0678 14.0098)" class="st2" width="15.75" height="57.75"/><ellipse id="Ellipse_34" transform="matrix(0.9777 -0.2101 0.2101 0.9777 -7.9953 13.3084)" class="st2" cx="58.64" cy="44.28" rx="1.86" ry="4.06"/><line id="Line_33" class="st1" x1="54.96" y1="64.19" x2="70.36" y2="60.88"/><line id="Line_34" class="st1" x1="56.48" y1="71.27" x2="71.88" y2="67.96"/></g><line id="Line_35" class="st1" x1="1223.24" y1="1892.82" x2="1226.83" y2="1892.82"/><line id="Line_36" class="st1" x1="1223.24" y1="1901.04" x2="1226.83" y2="1901.04"/><line id="Line_37" class="st1" x1="1223.24" y1="1908.99" x2="1226.83" y2="1908.99"/><line id="Line_38" class="st1" x1="1211.9" y1="1919.18" x2="1215.48" y2="1919.18"/><line id="Line_39" class="st1" x1="1211.9" y1="1930.26" x2="1215.48" y2="1930.26"/></g></g></svg>
